<svg id="_x31__x2C_5" enable-background="new 0 0 24 24" height="512" viewBox="0 0 24 24" width="512" xmlns="http://www.w3.org/2000/svg"><path d="m12 .75c-6.204 0-11.25 5.047-11.25 11.25s5.046 11.25 11.25 11.25 11.25-5.047 11.25-11.25-5.046-11.25-11.25-11.25z" fill="#00bcd4"/><path d="m12 24c-6.617 0-12-5.383-12-12s5.383-12 12-12 12 5.383 12 12-5.383 12-12 12zm0-22.5c-5.79 0-10.5 4.71-10.5 10.5s4.71 10.5 10.5 10.5 10.5-4.71 10.5-10.5-4.71-10.5-10.5-10.5z"/><path d="m17.25 18h-10.5c-.414 0-.75-.336-.75-.75s.336-.75.75-.75h10.5c.414 0 .75.336.75.75s-.336.75-.75.75z"/><path d="m12 14.501c-.414 0-.75-.336-.75-.75v-8.001c0-.414.336-.75.75-.75s.75.336.75.75v8.001c0 .414-.336.75-.75.75z"/><path d="m12 15c-.192 0-.384-.073-.53-.22l-3.25-3.25c-.293-.293-.293-.768 0-1.061s.768-.293 1.061 0l2.72 2.72 2.72-2.72c.293-.293.768-.293 1.061 0s.293.768 0 1.061l-3.25 3.25c-.148.147-.34.22-.532.22z"/></svg>